Coordinates
version=1
nRows=16
nColumns=42
inDegrees=yes

Units are S.I. units (second, meters, Newtons, ...)
If the header above contains a line with 'inDegrees', this indicates whether rotational values are in degrees (yes) or radians (no).

endheader
time	pelvis_tilt	pelvis_list	pelvis_rotation	pelvis_tx	pelvis_ty	pelvis_tz	hip_flexion_r	hip_adduction_r	hip_rotation_r	knee_angle_r	knee_adduction_r	knee_angle_r_beta	ankle_angle_r	subtalar_angle_r	mtp_angle_r	hip_flexion_l	hip_adduction_l	hip_rotation_l	knee_angle_l	knee_adduction_l	knee_angle_l_beta	ankle_angle_l	subtalar_angle_l	mtp_angle_l	lumbar_extension	lumbar_bending	lumbar_rotation	arm_flex_r	arm_add_r	arm_rot_r	elbow_flex_r	pro_sup_r	wrist_flex_r	wrist_dev_r	arm_flex_l	arm_add_l	arm_rot_l	elbow_flex_l	pro_sup_l	wrist_flex_l	wrist_dev_l
      0.50000000	     20.20033065	     -0.36815544	      2.68939269	     -0.43476188	      0.93221779	     -0.17567083	     -3.89034750	      5.20658578	    -20.48971187	     28.39244174	    -10.81214656	      0.49554159	     14.88121220	     26.94026852	     -9.11418181	    -29.62204710	      3.36710314	     -8.23362159	     25.94257548	     -2.16889336	      0.45278336	     21.54607769	     -6.27368452	     -9.11418181	    -33.72551991	     -1.65805729	      4.59608484	      5.41934699	    -10.68598007	    -36.66181416	     24.49379113	     90.00000001	      0.00000000	      0.00000000	     -0.39661741	    -18.69695194	      2.17585851	     67.97989228	     90.00000001	      0.00000000	      0.00000000
      0.51000000	     20.40602950	     -0.40503548	      2.58608799	     -0.42919451	      0.93383593	     -0.17458405	     -4.97053398	      5.32986140	    -21.41338591	     27.16972240	    -11.00969700	      0.47420111	     14.70322894	     28.57684383	     -9.06314483	    -29.62050979	      2.89610574	     -8.32830336	     27.30868660	     -1.48136135	      0.47662650	     20.48447111	     -6.81226271	     -9.06314483	    -33.91151148	     -1.72771385	      4.64476544	      5.90938161	    -10.61514629	    -36.64126205	     24.80950270	     90.00000001	      0.00000000	      0.00000000	     -0.35790236	    -18.77051880	      2.10897885	     68.08012387	     90.00000001	      0.00000000	      0.00000000
      0.52000000	     20.51398031	     -0.11748042	      2.20795056	     -0.42376542	      0.93533509	     -0.17346060	     -5.80223272	      4.91204425	    -21.95151297	     26.54451859	    -10.89145383	      0.46328925	     14.86556145	     28.86224819	     -9.05699889	    -29.58278767	      2.93455380	     -8.22272368	     28.44587492	     -0.77662312	      0.49647418	     19.76714117	     -6.69446680	     -9.05699889	    -34.00521895	     -2.23552550	      4.78169655	      6.41637223	    -10.57241006	    -36.55170536	     25.04171893	     90.00000001	      0.00000000	      0.00000000	     -0.26813662	    -18.79018495	      2.04245749	     68.04371094	     90.00000001	      0.00000000	      0.00000000
      0.53000000	     20.79504419	      0.01361477	      2.43688714	     -0.41815842	      0.93702031	     -0.17307135	     -6.89615116	      4.76986857	    -24.86923928	     25.06859981	    -11.72788766	      0.43752961	     14.62472423	     34.33646399	     -8.94796885	    -29.51356475	      2.47625160	     -7.35515707	     30.14489835	      0.12231702	      0.52612773	     17.60715611	     -8.84587376	     -8.94796885	    -34.27280560	     -2.28768406	      4.42356101	      6.70560586	    -10.47539394	    -35.37681042	     25.76121491	     90.00000001	      0.00000000	      0.00000000	     -0.27397769	    -18.89720909	      1.82158071	     68.31511877	     90.00000001	      0.00000000	      0.00000000
      0.54000000	     21.07301319	      0.03982835	      2.38730467	     -0.41275329	      0.93873420	     -0.17219919	     -8.07930057	      4.76831248	    -25.66033135	     23.89853255	    -11.58757311	      0.41710808	     14.38343615	     35.54153265	     -8.91126630	    -29.38702839	      1.97111293	     -7.10759709	     31.83851068	      0.97161160	      0.55568684	     16.27250675	     -9.60046513	     -8.91126630	    -34.54615862	     -2.37581291	      4.39935388	      7.16539182	    -10.41414059	    -34.87991499	     26.28827955	     90.00000001	      0.00000000	      0.00000000	     -0.24896493	    -18.93156400	      1.66652091	     68.56207189	     90.00000001	      0.00000000	      0.00000000
      0.55000000	     21.30910070	      0.18874173	      2.37314896	     -0.40747517	      0.94037767	     -0.17155892	     -9.16168766	      4.56660469	    -26.54578470	     22.89583440	    -11.37602387	      0.39960770	     14.05645190	     36.83797218	     -8.85578455	    -29.16517384	      1.57951262	     -6.42039159	     33.53607099	      1.99195623	      0.58531486	     14.76641985	    -10.84396601	     -8.85578455	    -34.80100357	     -2.54927831	      4.28567240	      7.55393318	    -10.39416182	    -33.86008773	     26.89983498	     90.00000001	      0.00000000	      0.00000000	     -0.18866101	    -18.95109698	      1.50427418	     68.72037442	     90.00000001	      0.00000000	      0.00000000
      0.56000000	     21.49860615	      0.56113562	      2.11314746	     -0.40236608	      0.94188129	     -0.17080754	    -10.07786608	      4.04291720	    -26.93402907	     22.29997087	    -11.06443216	      0.38920791	     14.18840146	     37.03057935	     -8.84985293	    -28.86968073	      1.56338727	     -6.15944476	     35.10666913	      2.76410764	      0.61272697	     14.04662289	    -10.79674983	     -8.84985293	    -35.03507618	     -3.04949042	      4.33288863	      8.11335758	    -10.35370124	    -33.67097719	     27.21427408	     90.00000001	      0.00000000	      0.00000000	     -0.00552866	    -18.92749831	      1.44534422	     68.77685998	     90.00000001	      0.00000000	      0.00000000
      0.57000000	     21.56612571	      0.32803820	      2.51199317	     -0.39740855	      0.94302116	     -0.17048644	    -11.01527156	      4.44574401	    -27.55704747	     21.11210347	    -10.70693034	      0.36847572	     13.77516157	     37.78811253	     -8.82064570	    -27.99706794	      0.56325229	     -5.72205241	     37.61403165	      3.47388112	      0.65648870	     12.54600732	    -12.43695649	     -8.82064570	    -35.14971381	     -2.65298805	      4.02737040	      8.59964910	    -10.28829205	    -32.77343836	     28.01311361	     90.00000001	      0.00000000	      0.00000000	     -0.05875599	    -18.96609799	      1.24071881	     69.20469305	     90.00000001	      0.00000000	      0.00000000
      0.58000000	     21.58759004	      0.62869171	      2.50390882	     -0.39262854	      0.94412168	     -0.17003248	    -11.73995623	      4.04083923	    -27.61252156	     20.58559480	    -10.16976274	      0.35928641	     13.80941514	     37.89851689	     -8.80553115	    -27.21136751	      0.38448133	     -5.33284918	     39.51330448	      4.04496216	      0.68963726	     11.87716694	    -12.65696176	     -8.80553115	    -35.25579316	     -2.98206739	      3.91047531	      9.13655293	    -10.21481898	    -32.32815497	     28.49438286	     90.00000001	      0.00000000	      0.00000000	      0.16396920	    -18.97472525	      1.16449472	     69.29785622	     90.00000001	      0.00000000	      0.00000000
      0.59000000	     21.33559773	      0.39454619	      2.78982144	     -0.38802307	      0.94451804	     -0.16972394	    -12.10231844	      4.45272090	    -27.79438773	     19.82544635	     -9.97077739	      0.34601931	     13.46917502	     38.03577170	     -8.76539252	    -25.78453247	     -0.57637670	     -5.08169167	     42.12600507	      4.71934850	      0.73523749	     10.95466297	    -14.48726099	     -8.76539252	    -35.07562783	     -2.61615270	      3.76341755	      9.52834004	    -10.30519353	    -30.79635402	     29.33720774	     90.00000001	      0.00000000	      0.00000000	      0.17419001	    -18.87862635	      0.97707854	     69.58511090	     90.00000001	      0.00000000	      0.00000000
      0.60000000	     21.32127571	      0.70343506	      2.87790217	     -0.38336018	      0.94539169	     -0.16960224	    -12.74731319	      4.05413502	    -27.69751621	     19.39588976	     -9.38828325	      0.33852214	     13.59406049	     38.04312650	     -8.74969552	    -24.82126637	     -0.69664757	     -4.78624695	     43.91080951	      4.93896103	      0.76638820	     10.67640820	    -14.71731929	     -8.74969552	    -35.17888726	     -2.87847996	      3.56118802	     10.09047342	    -10.26894609	    -30.27889917	     29.87006949	     90.00000001	      0.00000000	      0.00000000	      0.36412265	    -18.86438873	      0.96106863	     69.70622782	     90.00000001	      0.00000000	      0.00000000
      0.61000000	     21.03536834	      0.54468466	      3.11866394	     -0.37889637	      0.94551673	     -0.16938738	    -12.97391839	      4.34603434	    -27.59638557	     18.90459107	     -9.15141275	      0.32994736	     13.50432403	     37.97451168	     -8.63500731	    -23.29852237	     -1.49166237	     -4.74836745	     46.16269539	      5.26386916	      0.80569103	     10.35726152	    -15.98638256	     -8.63500731	    -34.98872635	     -2.60756460	      3.40531912	     10.09741801	    -10.67495012	    -26.32379810	     31.20078836	     90.00000001	      0.00000000	      0.00000000	      0.38204044	    -18.78831519	      0.82494507	     69.93801366	     90.00000001	      0.00000000	      0.00000000
      0.62000000	     20.87333210	      0.58921789	      3.30099845	     -0.37445507	      0.94589898	     -0.16930484	    -13.33663968	      4.37474902	    -27.31703725	     18.53642390	     -8.84158005	      0.32352163	     13.58605519	     37.83362342	     -8.60469412	    -21.96596269	     -1.89800200	     -4.81785135	     47.94226131	      5.10932772	      0.83675031	     10.45581327	    -16.46520033	     -8.60469412	    -34.96275314	     -2.55909047	      3.30888123	     10.69234193	    -10.67559897	    -25.91335027	     31.77111935	     90.00000001	      0.00000000	      0.00000000	      0.56304628	    -18.70780828	      0.83029343	     70.18958563	     90.00000001	      0.00000000	      0.00000000
      0.63000000	     20.70762034	      0.63465373	      3.45084653	     -0.37001335	      0.94618064	     -0.16919634	    -13.66940724	      4.40726785	    -26.92022427	     18.20007211	     -8.54394145	      0.31765118	     13.66856313	     37.64455076	     -8.56655403	    -20.63067608	     -2.29188992	     -5.01546445	     49.48102047	      4.87008813	      0.86360672	     10.79991072	    -16.80582437	     -8.56655403	    -34.91642247	     -2.53195669	      3.21989594	     11.24593097	    -10.72693471	    -25.14384727	     32.38387540	     90.00000001	      0.00000000	      0.00000000	      0.71018184	    -18.62520644	      0.85883522	     70.33583423	     90.00000001	      0.00000000	      0.00000000
      0.64000000	     20.62576565	      0.85895846	      3.57477088	     -0.36560481	      0.94669407	     -0.16930279	    -14.12098226	      4.18214410	    -26.52896572	     17.91157882	     -8.13924907	      0.31261602	     13.82523687	     37.47719857	     -8.55075746	    -19.43778491	     -2.36774030	     -5.11702734	     50.54982504	      4.43365590	      0.88226088	     11.25570127	    -17.07034777	     -8.55075746	    -35.00169781	     -2.66394503	      3.05618587	     11.90564185	    -10.71960560	    -24.75597870	     32.90578392	     90.00000001	      0.00000000	      0.00000000	      0.88398178	    -18.57110615	      0.94550085	     70.49361472	     90.00000001	      0.00000000	      0.00000000
      0.65000000	     20.47857379	      0.94455009	      3.66579477	     -0.36131283	      0.94694920	     -0.16921512	    -14.43423006	      4.17187115	    -26.00866915	     17.63913970	     -7.88983481	      0.30786107	     13.97150026	     37.16164761	     -8.53100410	    -18.09789681	     -2.60795863	     -5.45905606	     51.56783931	      3.88545559	      0.90002858	     11.76845970	    -17.30995944	     -8.53100410	    -35.01778088	     -2.68552382	      3.01374353	     12.53636264	    -10.76577597	    -24.14038488	     33.48738699	     90.00000001	      0.00000000	      0.00000000	      1.05748593	    -18.50625625	      1.04534939	     70.66286634	     90.00000001	      0.00000000	      0.00000000
